<svg width="178" height="161" viewBox="0 0 178 161" fill="none" xmlns="http://www.w3.org/2000/svg">
<path fill-rule="evenodd" clip-rule="evenodd" d="M126.502 38C126.502 58.7107 109.712 75.5 89.0015 75.5C68.2908 75.5 51.5015 58.7107 51.5015 38C51.5015 17.2893 68.2908 0.5 89.0015 0.5C109.712 0.5 126.502 17.2893 126.502 38ZM114.002 38C114.002 51.8071 102.809 63 89.0015 63C75.1944 63 64.0015 51.8071 64.0015 38C64.0015 24.1929 75.1944 13 89.0015 13C102.809 13 114.002 24.1929 114.002 38Z" fill="#D6D6E7"/>
<path d="M89.0015 94.25C48.5366 94.25 14.0595 118.178 0.92627 151.7C4.12561 154.877 7.49588 157.882 11.0221 160.7C20.8017 129.923 51.481 106.75 89.0015 106.75C126.522 106.75 157.201 129.923 166.981 160.7C170.507 157.882 173.877 154.877 177.077 151.7C163.944 118.178 129.466 94.25 89.0015 94.25Z" fill="#D6D6E7"/>
</svg>
